<svg width="2014" height="549" viewBox="0 0 2014 549" fill="none" xmlns="http://www.w3.org/2000/svg">
<path d="M708.14 359.76C695.72 359.76 684.143 357.767 673.41 353.78C662.83 349.64 653.63 343.813 645.81 336.3C637.99 328.787 631.857 319.97 627.41 309.85C623.117 299.73 620.97 288.613 620.97 276.5C620.97 264.387 623.117 253.27 627.41 243.15C631.857 233.03 637.99 224.213 645.81 216.7C653.783 209.187 663.06 203.437 673.64 199.45C684.22 195.31 695.797 193.24 708.37 193.24C722.323 193.24 734.897 195.693 746.09 200.6C757.437 205.353 766.943 212.407 774.61 221.76L750.69 243.84C745.17 237.553 739.037 232.877 732.29 229.81C725.543 226.59 718.183 224.98 710.21 224.98C702.697 224.98 695.797 226.207 689.51 228.66C683.223 231.113 677.78 234.64 673.18 239.24C668.58 243.84 664.977 249.283 662.37 255.57C659.917 261.857 658.69 268.833 658.69 276.5C658.69 284.167 659.917 291.143 662.37 297.43C664.977 303.717 668.58 309.16 673.18 313.76C677.78 318.36 683.223 321.887 689.51 324.34C695.797 326.793 702.697 328.02 710.21 328.02C718.183 328.02 725.543 326.487 732.29 323.42C739.037 320.2 745.17 315.37 750.69 308.93L774.61 331.01C766.943 340.363 757.437 347.493 746.09 352.4C734.897 357.307 722.247 359.76 708.14 359.76ZM872.452 231.42C882.265 231.42 891.005 233.413 898.672 237.4C906.492 241.233 912.625 247.213 917.072 255.34C921.518 263.313 923.742 273.587 923.742 286.16V357H887.862V291.68C887.862 281.713 885.638 274.353 881.192 269.6C876.898 264.847 870.765 262.47 862.792 262.47C857.118 262.47 851.982 263.697 847.382 266.15C842.935 268.45 839.408 272.053 836.802 276.96C834.348 281.867 833.122 288.153 833.122 295.82V357H797.242V186.34H833.122V267.53L825.072 257.18C829.518 248.9 835.882 242.537 844.162 238.09C852.442 233.643 861.872 231.42 872.452 231.42ZM1032.17 357V332.85L1029.87 327.56V284.32C1029.87 276.653 1027.49 270.673 1022.74 266.38C1018.14 262.087 1011.01 259.94 1001.35 259.94C994.752 259.94 988.235 261.013 981.795 263.16C975.508 265.153 970.142 267.913 965.695 271.44L952.815 246.37C959.562 241.617 967.688 237.937 977.195 235.33C986.702 232.723 996.362 231.42 1006.18 231.42C1025.04 231.42 1039.68 235.867 1050.11 244.76C1060.53 253.653 1065.75 267.53 1065.75 286.39V357H1032.17ZM994.445 358.84C984.785 358.84 976.505 357.23 969.605 354.01C962.705 350.637 957.415 346.113 953.735 340.44C950.055 334.767 948.215 328.403 948.215 321.35C948.215 313.99 949.978 307.55 953.505 302.03C957.185 296.51 962.935 292.217 970.755 289.15C978.575 285.93 988.772 284.32 1001.35 284.32H1034.24V305.25H1005.26C996.822 305.25 990.995 306.63 987.775 309.39C984.708 312.15 983.175 315.6 983.175 319.74C983.175 324.34 984.938 328.02 988.465 330.78C992.145 333.387 997.128 334.69 1003.42 334.69C1009.4 334.69 1014.76 333.31 1019.52 330.55C1024.27 327.637 1027.72 323.42 1029.87 317.9L1035.39 334.46C1032.78 342.433 1028.03 348.49 1021.13 352.63C1014.23 356.77 1005.33 358.84 994.445 358.84ZM1256.69 231.42C1266.5 231.42 1275.16 233.413 1282.68 237.4C1290.34 241.233 1296.32 247.213 1300.62 255.34C1305.06 263.313 1307.29 273.587 1307.29 286.16V357H1271.41V291.68C1271.41 281.713 1269.34 274.353 1265.2 269.6C1261.06 264.847 1255.23 262.47 1247.72 262.47C1242.5 262.47 1237.83 263.697 1233.69 266.15C1229.55 268.45 1226.33 271.977 1224.03 276.73C1221.73 281.483 1220.58 287.54 1220.58 294.9V357H1184.7V291.68C1184.7 281.713 1182.63 274.353 1178.49 269.6C1174.5 264.847 1168.75 262.47 1161.24 262.47C1156.02 262.47 1151.35 263.697 1147.21 266.15C1143.07 268.45 1139.85 271.977 1137.55 276.73C1135.25 281.483 1134.1 287.54 1134.1 294.9V357H1098.22V233.26H1132.49V267.07L1126.05 257.18C1130.34 248.747 1136.4 242.383 1144.22 238.09C1152.19 233.643 1161.24 231.42 1171.36 231.42C1182.7 231.42 1192.59 234.333 1201.03 240.16C1209.61 245.833 1215.29 254.573 1218.05 266.38L1205.4 262.93C1209.54 253.27 1216.13 245.603 1225.18 239.93C1234.38 234.257 1244.88 231.42 1256.69 231.42ZM1415.35 357V332.85L1413.05 327.56V284.32C1413.05 276.653 1410.67 270.673 1405.92 266.38C1401.32 262.087 1394.19 259.94 1384.53 259.94C1377.94 259.94 1371.42 261.013 1364.98 263.16C1358.69 265.153 1353.33 267.913 1348.88 271.44L1336 246.37C1342.75 241.617 1350.87 237.937 1360.38 235.33C1369.89 232.723 1379.55 231.42 1389.36 231.42C1408.22 231.42 1422.86 235.867 1433.29 244.76C1443.72 253.653 1448.93 267.53 1448.93 286.39V357H1415.35ZM1377.63 358.84C1367.97 358.84 1359.69 357.23 1352.79 354.01C1345.89 350.637 1340.6 346.113 1336.92 340.44C1333.24 334.767 1331.4 328.403 1331.4 321.35C1331.4 313.99 1333.16 307.55 1336.69 302.03C1340.37 296.51 1346.12 292.217 1353.94 289.15C1361.76 285.93 1371.96 284.32 1384.53 284.32H1417.42V305.25H1388.44C1380.01 305.25 1374.18 306.63 1370.96 309.39C1367.89 312.15 1366.36 315.6 1366.36 319.74C1366.36 324.34 1368.12 328.02 1371.65 330.78C1375.33 333.387 1380.31 334.69 1386.6 334.69C1392.58 334.69 1397.95 333.31 1402.7 330.55C1407.45 327.637 1410.9 323.42 1413.05 317.9L1418.57 334.46C1415.96 342.433 1411.21 348.49 1404.31 352.63C1397.41 356.77 1388.52 358.84 1377.63 358.84ZM1483.93 357V196H1514.75L1609.74 311.92H1594.79V196H1631.59V357H1601L1505.78 241.08H1520.73V357H1483.93ZM1726.03 358.84C1712.85 358.84 1701.12 356.08 1690.84 350.56C1680.72 345.04 1672.67 337.527 1666.69 328.02C1660.87 318.36 1657.95 307.397 1657.95 295.13C1657.95 282.71 1660.87 271.747 1666.69 262.24C1672.67 252.58 1680.72 245.067 1690.84 239.7C1701.12 234.18 1712.85 231.42 1726.03 231.42C1739.07 231.42 1750.72 234.18 1760.99 239.7C1771.27 245.067 1779.32 252.503 1785.14 262.01C1790.97 271.517 1793.88 282.557 1793.88 295.13C1793.88 307.397 1790.97 318.36 1785.14 328.02C1779.32 337.527 1771.27 345.04 1760.99 350.56C1750.72 356.08 1739.07 358.84 1726.03 358.84ZM1726.03 329.4C1732.01 329.4 1737.38 328.02 1742.13 325.26C1746.89 322.5 1750.64 318.59 1753.4 313.53C1756.16 308.317 1757.54 302.183 1757.54 295.13C1757.54 287.923 1756.16 281.79 1753.4 276.73C1750.64 271.67 1746.89 267.76 1742.13 265C1737.38 262.24 1732.01 260.86 1726.03 260.86C1720.05 260.86 1714.69 262.24 1709.93 265C1705.18 267.76 1701.35 271.67 1698.43 276.73C1695.67 281.79 1694.29 287.923 1694.29 295.13C1694.29 302.183 1695.67 308.317 1698.43 313.53C1701.35 318.59 1705.18 322.5 1709.93 325.26C1714.69 328.02 1720.05 329.4 1726.03 329.4ZM1842.79 357L1798.17 233.26H1831.98L1869.01 339.75H1852.91L1891.55 233.26H1921.91L1959.4 339.75H1943.3L1981.48 233.26H2013.22L1968.37 357H1933.64L1900.75 265.69H1911.33L1877.29 357H1842.79Z" fill="#FF7500"/>
<rect width="514" height="345" rx="80" fill="#FF7500"/>
<rect x="207" y="449" width="100" height="100" fill="#F8CFA9"/>
<path d="M514 268C514 409.937 398.937 525 257 525C115.063 525 0 409.937 0 268C0 126.063 111.563 18.5 253.5 18.5C395.437 18.5 514 126.063 514 268Z" fill="#F8CFA9"/>
<path d="M165.5 16H376L492.419 56.7094L256.709 292.419L21 56.7094L165.5 16Z" fill="#FF7500"/>
<circle cx="257.5" cy="266.5" r="140.5" fill="#FF7500"/>
<path d="M398 266.5C398 344.096 335.096 407 257.5 407C179.904 407 117 344.096 117 266.5C117 248 121.366 213.781 137.5 193.5C149.5 214.5 166.222 225.517 187 218C202.785 212.29 205.236 196.091 196 173C188 153 196 112 234.5 99.5001C249.5 94.6299 254.5 68.5 257.5 45C333 92 268.5 141 289 176C300.5 191 325.264 198.108 347 158C368 176 398 206 398 266.5Z" fill="#10069F"/>
</svg>
