<svg width="514" height="728" viewBox="0 0 514 728" fill="none" xmlns="http://www.w3.org/2000/svg">
<rect y="153" width="514" height="338" rx="45" fill="#FF7500"/>
<rect x="207" y="628" width="100" height="100" fill="#F8CFA9"/>
<circle cx="257" cy="447" r="257" fill="#F8CFA9"/>
<path d="M256.709 174.5L492.419 235.709L256.709 471.419L21 235.709L256.709 174.5Z" fill="#FF7500"/>
<circle cx="257.5" cy="445.5" r="140.5" fill="#FF7500"/>
<path d="M398 445.5C398 523.096 335.096 586 257.5 586C179.904 586 117 523.096 117 445.5C117 427 121.366 392.781 137.5 372.5C149.5 393.5 166.222 404.517 187 397C202.785 391.29 205.236 375.091 196 352C188 332 196 291 234.5 278.5C249.5 273.63 254.5 247.5 257.5 224C333 271 268.5 320 289 355C300.5 370 325.264 377.108 347 337C368 355 398 385 398 445.5Z" fill="#10069F"/>
</svg>
