<svg width="514" height="549" viewBox="0 0 514 549" fill="none" xmlns="http://www.w3.org/2000/svg">
<rect width="514" height="345" rx="80" fill="#FF7500"/>
<rect x="207" y="449" width="100" height="100" fill="#F8CFA9"/>
<path d="M514 268C514 409.937 398.937 525 257 525C115.063 525 0 409.937 0 268C0 126.063 111.563 18.5 253.5 18.5C395.437 18.5 514 126.063 514 268Z" fill="#F8CFA9"/>
<path d="M165.5 16H376L492.419 56.7094L256.709 292.419L21 56.7094L165.5 16Z" fill="#FF7500"/>
<circle cx="257.5" cy="266.5" r="140.5" fill="#FF7500"/>
<path d="M398 266.5C398 344.096 335.096 407 257.5 407C179.904 407 117 344.096 117 266.5C117 248 121.366 213.781 137.5 193.5C149.5 214.5 166.222 225.517 187 218C202.785 212.29 205.236 196.091 196 173C188 153 196 112 234.5 99.5001C249.5 94.6299 254.5 68.5 257.5 45C333 92 268.5 141 289 176C300.5 191 325.264 198.108 347 158C368 176 398 206 398 266.5Z" fill="#10069F"/>
</svg>
